<mxfile host="app.diagrams.net" modified="2021-02-24T01:52:02.200Z" agent="5.0 (Windows NT 10.0; Win64; x64) AppleWebKit/537.36 (KHTML, like Gecko) Chrome/88.0.4324.190 Safari/537.36" etag="JPlqAlrDY9u2AI3GBHh4" version="14.4.2" type="github">
  <diagram id="GXCTUo52rCer0XXX41nN" name="Page-1">
    <mxGraphModel dx="1038" dy="580" grid="1" gridSize="10" guides="1" tooltips="1" connect="1" arrows="1" fold="1" page="1" pageScale="1" pageWidth="827" pageHeight="1169" math="0" shadow="0">
      <root>
        <mxCell id="0" />
        <mxCell id="1" parent="0" />
        <mxCell id="IHZ_zdu_gvjx007J5u15-7" style="edgeStyle=orthogonalEdgeStyle;rounded=0;orthogonalLoop=1;jettySize=auto;html=1;exitX=0.5;exitY=1;exitDx=0;exitDy=0;entryX=0.5;entryY=0;entryDx=0;entryDy=0;" edge="1" parent="1" source="IHZ_zdu_gvjx007J5u15-1" target="IHZ_zdu_gvjx007J5u15-2">
          <mxGeometry relative="1" as="geometry" />
        </mxCell>
        <mxCell id="IHZ_zdu_gvjx007J5u15-8" style="edgeStyle=orthogonalEdgeStyle;rounded=0;orthogonalLoop=1;jettySize=auto;html=1;exitX=0.5;exitY=1;exitDx=0;exitDy=0;entryX=0.5;entryY=0;entryDx=0;entryDy=0;" edge="1" parent="1" source="IHZ_zdu_gvjx007J5u15-1" target="IHZ_zdu_gvjx007J5u15-3">
          <mxGeometry relative="1" as="geometry" />
        </mxCell>
        <mxCell id="IHZ_zdu_gvjx007J5u15-9" style="edgeStyle=orthogonalEdgeStyle;rounded=0;orthogonalLoop=1;jettySize=auto;html=1;exitX=0.5;exitY=1;exitDx=0;exitDy=0;entryX=0.5;entryY=0;entryDx=0;entryDy=0;" edge="1" parent="1" source="IHZ_zdu_gvjx007J5u15-1" target="IHZ_zdu_gvjx007J5u15-4">
          <mxGeometry relative="1" as="geometry" />
        </mxCell>
        <mxCell id="IHZ_zdu_gvjx007J5u15-10" style="edgeStyle=orthogonalEdgeStyle;rounded=0;orthogonalLoop=1;jettySize=auto;html=1;exitX=0.5;exitY=1;exitDx=0;exitDy=0;" edge="1" parent="1" source="IHZ_zdu_gvjx007J5u15-1" target="IHZ_zdu_gvjx007J5u15-5">
          <mxGeometry relative="1" as="geometry" />
        </mxCell>
        <mxCell id="IHZ_zdu_gvjx007J5u15-22" style="edgeStyle=orthogonalEdgeStyle;rounded=0;orthogonalLoop=1;jettySize=auto;html=1;exitX=0.75;exitY=1;exitDx=0;exitDy=0;entryX=0.5;entryY=0;entryDx=0;entryDy=0;" edge="1" parent="1" source="IHZ_zdu_gvjx007J5u15-1" target="IHZ_zdu_gvjx007J5u15-21">
          <mxGeometry relative="1" as="geometry">
            <mxPoint x="720" y="100" as="targetPoint" />
            <Array as="points">
              <mxPoint x="450" y="80" />
              <mxPoint x="760" y="80" />
            </Array>
          </mxGeometry>
        </mxCell>
        <mxCell id="IHZ_zdu_gvjx007J5u15-31" style="edgeStyle=orthogonalEdgeStyle;rounded=0;orthogonalLoop=1;jettySize=auto;html=1;exitX=0.25;exitY=1;exitDx=0;exitDy=0;" edge="1" parent="1" source="IHZ_zdu_gvjx007J5u15-1">
          <mxGeometry relative="1" as="geometry">
            <mxPoint x="80" y="160" as="targetPoint" />
            <Array as="points">
              <mxPoint x="390" y="80" />
              <mxPoint x="80" y="80" />
            </Array>
          </mxGeometry>
        </mxCell>
        <mxCell id="IHZ_zdu_gvjx007J5u15-1" value="Raspisanie.online" style="rounded=0;whiteSpace=wrap;html=1;" vertex="1" parent="1">
          <mxGeometry x="360" width="120" height="60" as="geometry" />
        </mxCell>
        <mxCell id="IHZ_zdu_gvjx007J5u15-13" style="edgeStyle=orthogonalEdgeStyle;rounded=0;orthogonalLoop=1;jettySize=auto;html=1;exitX=0.5;exitY=1;exitDx=0;exitDy=0;entryX=0.5;entryY=0;entryDx=0;entryDy=0;" edge="1" parent="1" source="IHZ_zdu_gvjx007J5u15-2" target="IHZ_zdu_gvjx007J5u15-12">
          <mxGeometry relative="1" as="geometry" />
        </mxCell>
        <mxCell id="IHZ_zdu_gvjx007J5u15-2" value="Выбор группы" style="rounded=0;whiteSpace=wrap;html=1;" vertex="1" parent="1">
          <mxGeometry x="160" y="160" width="120" height="60" as="geometry" />
        </mxCell>
        <mxCell id="IHZ_zdu_gvjx007J5u15-14" style="edgeStyle=orthogonalEdgeStyle;rounded=0;orthogonalLoop=1;jettySize=auto;html=1;exitX=0.5;exitY=1;exitDx=0;exitDy=0;" edge="1" parent="1" source="IHZ_zdu_gvjx007J5u15-3">
          <mxGeometry relative="1" as="geometry">
            <mxPoint x="380" y="320" as="targetPoint" />
          </mxGeometry>
        </mxCell>
        <mxCell id="IHZ_zdu_gvjx007J5u15-3" value="Выбор даты" style="rounded=0;whiteSpace=wrap;html=1;" vertex="1" parent="1">
          <mxGeometry x="300" y="160" width="120" height="60" as="geometry" />
        </mxCell>
        <mxCell id="IHZ_zdu_gvjx007J5u15-15" style="edgeStyle=orthogonalEdgeStyle;rounded=0;orthogonalLoop=1;jettySize=auto;html=1;exitX=0.5;exitY=1;exitDx=0;exitDy=0;" edge="1" parent="1" source="IHZ_zdu_gvjx007J5u15-4">
          <mxGeometry relative="1" as="geometry">
            <mxPoint x="380" y="320" as="targetPoint" />
          </mxGeometry>
        </mxCell>
        <mxCell id="IHZ_zdu_gvjx007J5u15-4" value="Выбор аудитории" style="rounded=0;whiteSpace=wrap;html=1;" vertex="1" parent="1">
          <mxGeometry x="430" y="160" width="120" height="60" as="geometry" />
        </mxCell>
        <mxCell id="IHZ_zdu_gvjx007J5u15-16" style="edgeStyle=orthogonalEdgeStyle;rounded=0;orthogonalLoop=1;jettySize=auto;html=1;exitX=0.5;exitY=1;exitDx=0;exitDy=0;" edge="1" parent="1" source="IHZ_zdu_gvjx007J5u15-5">
          <mxGeometry relative="1" as="geometry">
            <mxPoint x="380" y="320" as="targetPoint" />
          </mxGeometry>
        </mxCell>
        <mxCell id="IHZ_zdu_gvjx007J5u15-5" value="Выбор преподавателя" style="rounded=0;whiteSpace=wrap;html=1;" vertex="1" parent="1">
          <mxGeometry x="560" y="160" width="120" height="60" as="geometry" />
        </mxCell>
        <mxCell id="IHZ_zdu_gvjx007J5u15-20" style="edgeStyle=orthogonalEdgeStyle;rounded=0;orthogonalLoop=1;jettySize=auto;html=1;exitX=0.5;exitY=1;exitDx=0;exitDy=0;entryX=0.5;entryY=0;entryDx=0;entryDy=0;" edge="1" parent="1" source="IHZ_zdu_gvjx007J5u15-12" target="IHZ_zdu_gvjx007J5u15-18">
          <mxGeometry relative="1" as="geometry" />
        </mxCell>
        <mxCell id="IHZ_zdu_gvjx007J5u15-12" value="Запрос в базу данных" style="rounded=0;whiteSpace=wrap;html=1;" vertex="1" parent="1">
          <mxGeometry x="320" y="320" width="120" height="60" as="geometry" />
        </mxCell>
        <mxCell id="IHZ_zdu_gvjx007J5u15-18" value="Возврат результата" style="rounded=0;whiteSpace=wrap;html=1;" vertex="1" parent="1">
          <mxGeometry x="320" y="440" width="120" height="60" as="geometry" />
        </mxCell>
        <mxCell id="IHZ_zdu_gvjx007J5u15-21" value="Отображение данных из БД" style="rounded=0;whiteSpace=wrap;html=1;" vertex="1" parent="1">
          <mxGeometry x="700" y="160" width="120" height="60" as="geometry" />
        </mxCell>
        <mxCell id="IHZ_zdu_gvjx007J5u15-26" value="Возврат данных из БД" style="html=1;verticalAlign=bottom;startArrow=circle;startFill=1;endArrow=open;startSize=6;endSize=8;" edge="1" parent="1">
          <mxGeometry x="-0.1429" y="10" width="80" relative="1" as="geometry">
            <mxPoint x="630" y="70" as="sourcePoint" />
            <mxPoint x="700" y="70" as="targetPoint" />
            <mxPoint as="offset" />
          </mxGeometry>
        </mxCell>
        <mxCell id="IHZ_zdu_gvjx007J5u15-27" value="Обработка запроса" style="html=1;verticalAlign=bottom;startArrow=circle;startFill=1;endArrow=open;startSize=6;endSize=8;" edge="1" parent="1">
          <mxGeometry x="-0.1429" y="10" width="80" relative="1" as="geometry">
            <mxPoint x="270" y="300" as="sourcePoint" />
            <mxPoint x="340" y="300" as="targetPoint" />
            <mxPoint as="offset" />
          </mxGeometry>
        </mxCell>
        <mxCell id="IHZ_zdu_gvjx007J5u15-28" value="Обработка запроса" style="html=1;verticalAlign=bottom;startArrow=circle;startFill=1;endArrow=open;startSize=6;endSize=8;" edge="1" parent="1">
          <mxGeometry y="-10" width="80" relative="1" as="geometry">
            <mxPoint x="480" y="300" as="sourcePoint" />
            <mxPoint x="420" y="300" as="targetPoint" />
            <mxPoint as="offset" />
          </mxGeometry>
        </mxCell>
        <mxCell id="IHZ_zdu_gvjx007J5u15-29" value="Выбор&amp;nbsp; нужного элемента" style="html=1;verticalAlign=bottom;startArrow=circle;startFill=1;endArrow=open;startSize=6;endSize=8;" edge="1" parent="1">
          <mxGeometry x="-0.1429" y="-20" width="80" relative="1" as="geometry">
            <mxPoint x="455" y="150" as="sourcePoint" />
            <mxPoint x="385" y="150" as="targetPoint" />
            <mxPoint as="offset" />
          </mxGeometry>
        </mxCell>
        <mxCell id="IHZ_zdu_gvjx007J5u15-30" value="Возврат данных из БД" style="html=1;verticalAlign=bottom;startArrow=circle;startFill=1;endArrow=open;startSize=6;endSize=8;" edge="1" parent="1">
          <mxGeometry x="-0.6667" y="70" width="80" relative="1" as="geometry">
            <mxPoint x="350" y="440" as="sourcePoint" />
            <mxPoint x="350" y="380" as="targetPoint" />
            <mxPoint as="offset" />
          </mxGeometry>
        </mxCell>
        <mxCell id="IHZ_zdu_gvjx007J5u15-34" style="edgeStyle=orthogonalEdgeStyle;rounded=0;orthogonalLoop=1;jettySize=auto;html=1;exitX=0.5;exitY=1;exitDx=0;exitDy=0;" edge="1" parent="1" source="IHZ_zdu_gvjx007J5u15-32" target="IHZ_zdu_gvjx007J5u15-12">
          <mxGeometry relative="1" as="geometry" />
        </mxCell>
        <mxCell id="IHZ_zdu_gvjx007J5u15-32" value="Автоматический вывод расписания на неделю" style="rounded=0;whiteSpace=wrap;html=1;" vertex="1" parent="1">
          <mxGeometry x="20" y="160" width="120" height="60" as="geometry" />
        </mxCell>
        <mxCell id="IHZ_zdu_gvjx007J5u15-33" value="АВтоматический запрос" style="html=1;verticalAlign=bottom;startArrow=circle;startFill=1;endArrow=open;startSize=6;endSize=8;" edge="1" parent="1">
          <mxGeometry x="-0.1429" y="-20" width="80" relative="1" as="geometry">
            <mxPoint x="270" y="70" as="sourcePoint" />
            <mxPoint x="200" y="70" as="targetPoint" />
            <mxPoint as="offset" />
          </mxGeometry>
        </mxCell>
      </root>
    </mxGraphModel>
  </diagram>
</mxfile>
